<?xml version="1.0" standalone="no"?>
<!DOCTYPE svg PUBLIC "-//W3C//DTD SVG 20010904//EN"
 "http://www.w3.org/TR/2001/REC-SVG-20010904/DTD/svg10.dtd">
<svg version="1.0"
  xmlns="http://www.w3.org/2000/svg" width="512.000000pt" height="512.000000pt" viewBox="0 0 512.000000 512.000000" preserveAspectRatio="xMidYMid meet">

  <g transform="translate(0.000000,512.000000) scale(0.100000,-0.100000)" fill="currentColor" stroke="none">
    <path d="M2565 4615 c-33 -9 -88 -30 -123 -48 -34 -17 -306 -210 -603 -427
-298 -217 -553 -402 -568 -410 -21 -12 -93 -16 -396 -21 -315 -5 -378 -8 -425
-23 -221 -71 -390 -250 -435 -462 -21 -101 -21 -1227 0 -1328 45 -212 213
-390 435 -462 47 -15 105 -18 415 -21 227 -2 370 -8 388 -15 15 -6 276 -192
580 -414 303 -221 579 -417 612 -433 96 -49 173 -64 300 -59 130 6 207 31 316
104 113 75 197 188 246 334 17 52 18 129 21 1580 2 1032 -1 1547 -8 1593 -36
236 -190 422 -410 498 -84 28 -257 35 -345 14z m262 -442 c21 -16 47 -45 58
-64 20 -34 20 -52 20 -1549 0 -1497 0 -1515 -20 -1549 -11 -19 -37 -48 -58
-65 -35 -28 -45 -31 -111 -31 -84 0 5 -58 -696 453 -267 195 -502 364 -522
376 l-38 21 0 795 1 795 46 28 c26 16 282 200 570 410 288 210 538 390 556
400 52 29 146 20 194 -20z m-1787 -1614 l0 -730 -237 3 c-272 3 -292 9 -348
87 l-30 43 -3 585 c-2 580 -2 586 19 630 24 49 68 87 119 101 19 6 135 11 258
11 l222 1 0 -731z"/>
    <path d="M3719 3287 c-54 -29 -99 -98 -106 -162 -11 -90 9 -119 241 -353 l210
-212 -206 -208 c-218 -218 -247 -258 -248 -338 0 -57 42 -136 91 -170 56 -39
149 -46 211 -15 27 13 117 95 248 226 l204 205 216 -214 c163 -161 224 -216
254 -226 59 -19 147 -9 194 22 49 33 92 114 92 172 -1 80 -30 120 -248 339
l-206 207 206 208 c218 218 247 258 248 338 0 58 -43 139 -92 172 -47 31 -135
41 -194 22 -30 -10 -91 -65 -254 -226 l-216 -214 -204 205 c-124 124 -221 213
-246 225 -57 28 -138 27 -195 -3z"/>
  </g>
</svg>
