<?xml version="1.0" standalone="no"?>
<!DOCTYPE svg PUBLIC "-//W3C//DTD SVG 20010904//EN"
 "http://www.w3.org/TR/2001/REC-SVG-20010904/DTD/svg10.dtd">
<svg version="1.0" xmlns="http://www.w3.org/2000/svg"
 width="512.000000pt" height="512.000000pt" viewBox="0 0 512.000000 512.000000"
 preserveAspectRatio="xMidYMid meet">

<g transform="translate(0.000000,512.000000) scale(0.100000,-0.100000)"
fill="currentColor" stroke="none">
<path d="M2488 4700 c-26 -5 -71 -19 -100 -33 -29 -13 -306 -205 -615 -425
l-562 -402 -211 0 c-240 0 -311 -11 -425 -65 -125 -60 -228 -162 -291 -288
-71 -141 -69 -110 -69 -927 0 -817 -2 -786 69 -927 63 -126 163 -225 291 -287
108 -53 192 -66 430 -66 l206 0 562 -402 c309 -220 585 -412 614 -425 204 -94
459 -2 554 201 16 35 34 90 39 122 6 33 10 308 10 621 l0 562 53 24 c127 59
238 174 302 312 42 89 57 164 56 274 0 104 -19 181 -68 281 -48 100 -167 220
-270 274 l-73 37 0 568 c0 340 -4 590 -10 621 -13 69 -52 153 -95 206 -88 107
-257 169 -397 144z m72 -2140 l0 -1719 -580 414 c-319 228 -595 423 -613 432
-28 16 -69 19 -307 23 -299 5 -305 7 -362 67 -60 62 -58 40 -58 783 0 743 -2
721 58 783 57 60 63 62 362 67 260 5 277 6 315 27 22 12 296 207 610 432 314
225 571 410 573 410 1 1 2 -773 2 -1719z"/>
<path d="M4055 4121 c-54 -26 -379 -354 -400 -403 -55 -134 50 -287 198 -288
26 0 64 7 85 15 47 20 365 334 394 390 48 91 14 214 -74 272 -54 36 -145 42
-203 14z"/>
<path d="M3989 2747 c-24 -13 -57 -43 -74 -66 -27 -39 -30 -50 -30 -121 0 -71
3 -82 30 -121 17 -23 50 -53 75 -66 l44 -24 367 3 367 3 44 30 c138 97 118
306 -34 370 -31 13 -94 15 -391 15 -351 0 -354 0 -398 -23z"/>
<path d="M3802 1690 c-112 -26 -183 -152 -151 -268 11 -41 34 -69 173 -210 89
-90 181 -175 205 -190 79 -46 194 -29 258 40 52 56 69 171 35 235 -9 17 -92
108 -183 201 -152 156 -170 172 -219 186 -58 17 -68 18 -118 6z"/>
</g>
</svg>
